HIERARCHY
ROOT Hips
{
  OFFSET 0.000000 0.000000 0.000000
  CHANNELS 6 Xposition Yposition Zposition Xrotation Yrotation Zrotation
  JOINT Spine
  {
    OFFSET 0.785918 22.667751 -11.192521
    CHANNELS 3 Xrotation Yrotation Zrotation
    JOINT Chest
    {
      OFFSET 0.785918 22.667751 -11.192521
      CHANNELS 3 Xrotation Yrotation Zrotation
      JOINT Neck
      {
        OFFSET 0.000000 4.280912 0.000000
        CHANNELS 3 Xrotation Yrotation Zrotation
        JOINT Head
        {
          OFFSET 0.000000 4.254871 0.000000
          CHANNELS 3 Xrotation Yrotation Zrotation
          End Site
          {
            OFFSET 0.000000 1.276461 0.000000
          }
        }
      }
      JOINT LeftCollar
      {
        OFFSET 3.000000 4.000000 0.000000
        CHANNELS 3 Xrotation Yrotation Zrotation
        JOINT LeftShoulder
        {
          OFFSET 16.621605 -2.780659 -2.297863
          CHANNELS 3 Xrotation Yrotation Zrotation
          JOINT LeftArm
          {
            OFFSET 7.570161 -18.010043 0.790673
            CHANNELS 3 Xrotation Yrotation Zrotation
            JOINT LeftForeArm
            {
              OFFSET 4.258502 -21.330331 -3.694189
              CHANNELS 3 Xrotation Yrotation Zrotation
              JOINT LeftHand
              {
                OFFSET -1.020528 -3.245478 -1.657259
                CHANNELS 3 Xrotation Yrotation Zrotation
                End Site
                {
                  OFFSET -0.306158 -0.973643 -0.497178
                }
              }
            }
          }
        }
      }
      JOINT RightCollar
      {
        OFFSET -3.000000 4.000000 0.000000
        CHANNELS 3 Xrotation Yrotation Zrotation
        JOINT RightShoulder
        {
          OFFSET -16.621605 2.780659 2.297863
          CHANNELS 3 Xrotation Yrotation Zrotation
          JOINT RightArm
          {
            OFFSET -7.047239 -26.880381 -0.525442
            CHANNELS 3 Xrotation Yrotation Zrotation
            JOINT RightForeArm
            {
              OFFSET -7.219958 -17.761464 -6.028907
              CHANNELS 3 Xrotation Yrotation Zrotation
              JOINT RightHand
              {
                OFFSET 1.362391 -2.129385 -3.788414
                CHANNELS 3 Xrotation Yrotation Zrotation
                End Site
                {
                  OFFSET 0.408717 -0.638815 -1.136524
                }
              }
            }
          }
        }
      }
    }
  }
  JOINT LeftUpLeg
  {
    OFFSET 10.014631 -0.404759 2.482655
    CHANNELS 3 Xrotation Yrotation Zrotation
    JOINT LeftLeg
    {
      OFFSET 2.113296 -38.097659 -0.269871
      CHANNELS 3 Xrotation Yrotation Zrotation
      JOINT LeftFoot
      {
        OFFSET -0.633741 -33.349279 19.614675
        CHANNELS 3 Xrotation Yrotation Zrotation
        End Site
        {
          OFFSET -0.190122 -10.004784 5.884402
        }
      }
    }
  }
  JOINT RightUpLeg
  {
    OFFSET -10.014631 0.404759 -2.482655
    CHANNELS 3 Xrotation Yrotation Zrotation
    JOINT RightLeg
    {
      OFFSET 1.865041 -30.879068 8.259322
      CHANNELS 3 Xrotation Yrotation Zrotation
      JOINT RightFoot
      {
        OFFSET -6.913018 -39.753150 16.368861
        CHANNELS 3 Xrotation Yrotation Zrotation
        End Site
        {
          OFFSET -2.073905 -11.925945 4.910658
        }
      }
    }
  }
}
MOTION
Frames: 8
Frame Time: 0.083333
0.111184 0.140942 0.094126 0.635841 -0.057091 -0.073260 0.000000 0.000000 0.000000 -25.926438 11.185813 -5.054789 -46.018994 -10.180383 -2.735190 0.000000 0.000000 0.000000 26.426941 -7.764438 9.497192 -3.240685 -1.425530 -0.050389 -1.514983 0.401038 0.421055 0.734938 2.093896 -0.122076 0.000000 0.000000 0.000000 26.426941 -7.764438 9.497192 -1.660592 0.371408 -0.267044 0.568948 0.085545 0.040344 0.463159 -0.842679 0.208451 0.000000 0.000000 0.000000 0.068466 0.085573 0.628439 -0.830488 -0.024304 -0.580406 0.000000 0.000000 0.000000 -0.041893 -0.060128 -0.522602 -0.020791 -0.007219 0.534284 0.000000 0.000000 0.000000
0.110929 0.140847 0.094561 0.543528 -0.055530 -0.076657 0.000000 0.000000 0.000000 -25.926263 11.192197 -5.020354 -45.969319 -10.163846 -2.749980 0.000000 0.000000 0.000000 26.517317 -7.764443 9.497228 -2.744121 -1.221706 -0.079049 -1.211320 0.354313 0.370013 0.638907 1.725371 -0.088062 0.000000 0.000000 0.000000 26.517317 -7.764443 9.497228 -1.416223 0.300842 -0.251129 0.556527 0.057091 0.009238 0.352397 -0.666655 0.205445 0.000000 0.000000 0.000000 0.261641 0.087633 0.613452 -1.000250 -0.007924 -0.549451 0.000000 0.000000 0.000000 0.080593 -0.038058 -0.442750 -0.098593 -0.038919 0.418616 0.000000 0.000000 0.000000
0.110296 0.140926 0.095371 1.282982 -0.160900 -0.243150 0.000000 0.000000 0.000000 -25.924416 11.267165 -4.859565 -46.819424 -10.010828 -2.726204 0.000000 0.000000 0.000000 25.759317 -7.764460 9.497466 -6.334528 -2.887905 -0.316859 -2.495880 0.883190 0.894328 1.503434 3.789181 -0.108419 0.000000 0.000000 0.000000 25.759317 -7.764460 9.497466 -3.276782 0.624348 -0.721693 1.446422 0.142069 -0.094053 0.810507 -1.435922 0.698575 0.000000 0.000000 0.000000 1.363365 0.267145 1.702799 -3.222660 0.010923 -1.465930 0.000000 0.000000 0.000000 0.583752 -0.046966 -1.058788 -0.390525 -0.238702 0.819766 0.000000 0.000000 0.000000
0.109633 0.141051 0.096433 1.339046 -0.262346 -0.451452 0.000000 0.000000 0.000000 -25.920286 11.433396 -4.490939 -47.094688 -9.755301 -2.649317 0.000000 0.000000 0.000000 25.668335 -7.764479 9.498051 -5.918875 -2.932885 -0.701934 -1.516631 1.013333 0.935909 1.445992 2.998261 0.265485 0.000000 0.000000 0.000000 25.668335 -7.764479 9.498051 -2.986291 0.321084 -1.189622 1.619893 0.277036 -0.448903 1.011805 -1.196302 1.559927 0.000000 0.000000 0.000000 3.832740 0.481584 2.376728 -5.679024 0.045940 -1.911510 0.000000 0.000000 0.000000 1.614478 0.065700 -1.173090 -0.627076 -0.694074 0.335535 0.000000 0.000000 0.000000
0.109276 0.140978 0.097793 1.555056 -0.385883 -0.698050 0.000000 0.000000 0.000000 -25.916100 11.634626 -4.199165 -47.108630 -9.507735 -2.276215 0.000000 0.000000 0.000000 25.412998 -7.764459 9.498814 -5.307900 -2.915601 -0.975162 -1.033785 1.030199 0.770000 1.224200 2.396921 0.843138 0.000000 0.000000 0.000000 25.412998 -7.764459 9.498814 -2.268262 -0.098265 -1.775262 1.145800 0.654278 -0.731810 1.765367 -1.439819 2.882395 0.000000 0.000000 0.000000 6.697435 0.774570 2.600395 -7.463732 -0.092295 -2.039966 0.000000 0.000000 0.000000 2.131725 0.143413 -1.426011 -0.343975 -1.130343 -0.059867 0.000000 0.000000 0.000000
0.109346 0.140909 0.099501 2.025708 -0.512665 -0.939806 0.000000 0.000000 0.000000 -25.917901 11.675027 -3.952450 -47.219864 -9.210466 -1.819578 0.000000 0.000000 0.000000 24.901860 -7.764477 9.499357 -4.932774 -2.851110 -1.125676 -1.562455 0.899365 0.333866 1.286923 2.418852 1.329086 0.000000 0.000000 0.000000 24.901860 -7.764477 9.499357 -1.610148 -0.363792 -2.066247 1.533334 0.511421 -0.703761 1.257870 -1.533157 3.517934 0.000000 0.000000 0.000000 9.972386 1.119462 2.767616 -10.702284 -0.231396 -2.192480 0.000000 0.000000 0.000000 3.220770 0.346385 -1.540601 -1.588516 -1.495834 -0.303291 0.000000 0.000000 0.000000
0.109264 0.140733 0.101378 2.412670 -0.599895 -1.105768 0.000000 0.000000 0.000000 -25.927023 11.471567 -3.899248 -47.436851 -8.937813 -1.313698 0.000000 0.000000 0.000000 24.479113 -7.764493 9.498644 -4.851147 -2.629892 -0.932991 -1.910681 0.854429 -0.360221 1.293960 2.594298 1.662589 0.000000 0.000000 0.000000 24.479113 -7.764493 9.498644 -1.264505 -0.263361 -2.151507 1.930257 0.294635 -0.510972 0.088970 -1.819236 3.520072 0.000000 0.000000 0.000000 10.111264 1.284815 2.706055 -10.405231 -0.413959 -2.124968 0.000000 0.000000 0.000000 5.126021 0.604031 -1.696942 -3.346365 -2.110366 -0.888622 0.000000 0.000000 0.000000
0.108763 0.140703 0.102864 2.682749 -0.625650 -1.148304 0.000000 0.000000 0.000000 -25.934550 11.261464 -3.993002 -47.617900 -8.767676 -0.931886 0.000000 0.000000 0.000000 24.196835 -7.764495 9.497870 -5.388183 -2.678545 -1.001318 -2.215236 0.906323 -0.080740 1.576836 2.837714 1.792358 0.000000 0.000000 0.000000 24.196835 -7.764495 9.497870 -1.291274 -0.040686 -2.110287 2.223031 0.060103 -0.129549 -0.993382 -2.320673 3.197894 0.000000 0.000000 0.000000 11.543065 1.470512 2.294911 -11.739634 -0.744841 -2.005343 0.000000 0.000000 0.000000 6.327313 0.691435 -2.118534 -4.479255 -2.575135 -1.273153 0.000000 0.000000 0.000000
